<svg xmlns="http://www.w3.org/2000/svg" viewBox="0 0 180 250" role="img" aria-label="Dark green book cover for Abai's Words">
  <defs>
    <linearGradient id="cover" x1="0" y1="0" x2="1" y2="1">
      <stop offset="0" stop-color="#1c4b3c"/>
      <stop offset=".54" stop-color="#0d2c25"/>
      <stop offset="1" stop-color="#061512"/>
    </linearGradient>
    <linearGradient id="edge" x1="0" y1="0" x2="1" y2="0">
      <stop offset="0" stop-color="#05100e"/>
      <stop offset=".38" stop-color="#2c5a49"/>
      <stop offset="1" stop-color="#081411"/>
    </linearGradient>
    <filter id="shadow" x="-30%" y="-20%" width="170%" height="160%">
      <feDropShadow dx="16" dy="18" stdDeviation="12" flood-color="#000" flood-opacity=".35"/>
    </filter>
  </defs>
  <g filter="url(#shadow)">
    <path d="M27 18 145 3l17 18v212L43 247 27 228Z" fill="#06110f"/>
    <path d="M43 29 162 17v216L43 247Z" fill="url(#cover)"/>
    <path d="M27 18 43 29v218L27 228Z" fill="url(#edge)"/>
    <path d="M43 29 162 17" stroke="#8db39e" stroke-opacity=".35"/>
    <path d="M57 43v184" stroke="#ffffff" stroke-opacity=".09"/>
    <path d="M68 52h70M68 198h54" stroke="#d4c28c" stroke-opacity=".22"/>
    <rect x="72" y="70" width="55" height="1" fill="#d4c28c" opacity=".28"/>
    <text x="98" y="104" text-anchor="middle" fill="#d9ddcf" font-family="Georgia, serif" font-size="13" letter-spacing="1.1">АБАЙ</text>
    <text x="98" y="125" text-anchor="middle" fill="#edf4ed" font-family="Georgia, serif" font-size="17" font-weight="700">ҚАРА</text>
    <text x="98" y="145" text-anchor="middle" fill="#edf4ed" font-family="Georgia, serif" font-size="17" font-weight="700">СӨЗДЕР</text>
    <text x="98" y="169" text-anchor="middle" fill="#d4c28c" font-family="Arial, sans-serif" font-size="7" letter-spacing="1.4">MURA</text>
    <path d="M80 184h36" stroke="#d4c28c" stroke-opacity=".35"/>
  </g>
</svg>
