<svg xmlns="http://www.w3.org/2000/svg" viewBox="0 0 560 210" role="img" aria-label="">
  <path fill="currentColor" d="M278 93c-22-28-52-43-91-53C124 23 74 9 0 0c61 28 108 56 151 88-41-12-78-17-119-14 52 18 98 38 137 63-32-5-62-2-93 8 48 9 91 24 133 45 20 10 37 15 54 15 7 0 12-2 17-5 5 3 10 5 17 5 17 0 34-5 54-15 42-21 85-36 133-45-31-10-61-13-93-8 39-25 85-45 137-63-41-3-78 2-119 14 43-32 90-60 151-88-74 9-124 23-187 40-39 10-69 25-91 53Z"/>
  <path fill="currentColor" d="M276 91c-9 8-16 19-19 32l23 20 23-20c-3-13-10-24-19-32h-8Z" opacity=".82"/>
  <path fill="currentColor" d="M270 132h20l-10 37-10-37Z" opacity=".72"/>
</svg>
